# xmcd CD database file
#
# Track frame offsets:
#	150
#	18203
#	31756
#	47284
#	66545
#	83079
#	105924
#	120626
#	137206
#	154617
#	170105
#	183025
#	201533
#	220418
#	238197
#	257848
#
# Disc length: 3774 seconds
#
# Revision: 0
# Processed by: cddbd v1.5.1PL0 Copyright (c) Steve Scherf et al.
# Submitted via: CDex 1.51
#
DISCID=da0ebc10
DTITLE=Jay Leonhart - Galaxies and Planets
DYEAR=2001
DGENRE=Jazz
TTITLE0=Endless Nights
TTITLE1=Galaxies and Planets
TTITLE2=I Got The Blues
TTITLE3=Joy
TTITLE4=Farmers Farming
TTITLE5=The Judge
TTITLE6=Woe Is Me
TTITLE7=Double Parking
TTITLE8=Dizzy
TTITLE9=Bass Aboard A Plane
TTITLE10=You Say That You're Leavin'
TTITLE11=Customs
TTITLE12=Rash Cash Blues
TTITLE13=She's Mean
TTITLE14=German Shepherd
TTITLE15=Data Track
EXTD=YEAR: 2001
EXTT0=
EXTT1=
EXTT2=
EXTT3=
EXTT4=
EXTT5=
EXTT6=
EXTT7=
EXTT8=
EXTT9=
EXTT10=
EXTT11=
EXTT12=
EXTT13=
EXTT14=
EXTT15=
PLAYORDER=
